<svg width="45" height="48" viewBox="0 0 45 48" fill="none" xmlns="http://www.w3.org/2000/svg">
<g clip-path="url(#clip0)">
<path d="M22.2224 7.11108C13.8669 7.11108 7.11133 13.8666 7.11133 22.2222C7.11133 28.5333 11.0224 34.1333 16.8891 36.3555V44.4444C16.8891 44.9778 17.2447 45.3333 17.778 45.3333H18.6669V47.1111C18.6669 47.6444 19.0224 48 19.5558 48H24.8891C25.4224 48 25.778 47.6444 25.778 47.1111V45.3333H26.6669C27.2002 45.3333 27.5558 44.9778 27.5558 44.4444V36.3555C33.4224 34.1333 37.3335 28.5333 37.3335 22.2222C37.3335 13.8666 30.578 7.11108 22.2224 7.11108ZM24.8891 43.5555C24.3558 43.5555 24.0002 43.9111 24.0002 44.4444V46.2222H20.4447V44.4444C20.4447 43.9111 20.0891 43.5555 19.5558 43.5555H18.6669V39.1111H25.778V43.5555H24.8891ZM26.4002 34.8444C26.0447 34.9333 25.778 35.2889 25.778 35.7333V37.3333H18.6669V35.7333C18.6669 35.3778 18.4002 35.0222 18.0447 34.8444C12.5335 33.0666 8.88911 28 8.88911 22.2222C8.88911 14.8444 14.8447 8.88886 22.2224 8.88886C29.6002 8.88886 35.5558 14.8444 35.5558 22.2222C35.5558 28 31.9113 33.0666 26.4002 34.8444Z" fill="#0AB8A9"/>
<path d="M22.2224 5.33333C22.7557 5.33333 23.1113 4.97778 23.1113 4.44444V0.888889C23.1113 0.355556 22.7557 0 22.2224 0C21.6891 0 21.3335 0.355556 21.3335 0.888889V4.44444C21.3335 4.97778 21.6891 5.33333 22.2224 5.33333Z" fill="#0AB8A9"/>
<path d="M43.5558 21.3333H40.0002C39.4669 21.3333 39.1113 21.6889 39.1113 22.2222C39.1113 22.7555 39.4669 23.1111 40.0002 23.1111H43.5558C44.0891 23.1111 44.4447 22.7555 44.4447 22.2222C44.4447 21.6889 44.0891 21.3333 43.5558 21.3333Z" fill="#0AB8A9"/>
<path d="M4.44444 21.3333H0.888889C0.355556 21.3333 0 21.6889 0 22.2222C0 22.7555 0.355556 23.1111 0.888889 23.1111H4.44444C4.97778 23.1111 5.33333 22.7555 5.33333 22.2222C5.33333 21.6889 4.97778 21.3333 4.44444 21.3333Z" fill="#0AB8A9"/>
<path d="M36.7111 6.4889L34.2222 8.97778C33.8667 9.33334 33.8667 9.86667 34.2222 10.2222C34.4 10.4 34.6667 10.4889 34.8445 10.4889C35.0222 10.4889 35.2889 10.4 35.4667 10.2222L37.9556 7.73334C38.3111 7.37778 38.3111 6.84445 37.9556 6.4889C37.6 6.13334 37.0667 6.13334 36.7111 6.4889Z" fill="#0AB8A9"/>
<path d="M8.97772 34.1333L6.48883 36.6222C6.13328 36.9778 6.13328 37.5111 6.48883 37.8667C6.66661 38.1333 6.93328 38.2222 7.11106 38.2222C7.28883 38.2222 7.5555 38.1333 7.73328 37.9556L10.2222 35.4667C10.5777 35.1111 10.5777 34.5778 10.2222 34.2222C9.86661 33.8667 9.33328 33.7778 8.97772 34.1333Z" fill="#0AB8A9"/>
<path d="M35.3778 34.1334C35.0223 33.7778 34.4889 33.7778 34.1334 34.1334C33.7778 34.4889 33.7778 35.0223 34.1334 35.3778L36.6223 37.8667C36.8 38.0445 37.0667 38.1334 37.2445 38.1334C37.4223 38.1334 37.6889 38.0445 37.8667 37.8667C38.2223 37.5111 38.2223 36.9778 37.8667 36.6223L35.3778 34.1334Z" fill="#0AB8A9"/>
<path d="M8.97772 10.3111C9.1555 10.4889 9.42217 10.5778 9.59995 10.5778C9.77772 10.5778 10.0444 10.4889 10.2222 10.3111C10.5777 9.95556 10.5777 9.42223 10.2222 9.06667L7.73328 6.4889C7.37772 6.13334 6.84439 6.13334 6.48883 6.4889C6.13328 6.84445 6.13328 7.37778 6.48883 7.73334L8.97772 10.3111Z" fill="#0AB8A9"/>
<path d="M22.2223 11.5555C16.3557 11.5555 11.5557 16.3555 11.5557 22.2222C11.5557 22.7555 11.9112 23.1111 12.4446 23.1111C12.9779 23.1111 13.3334 22.7555 13.3334 22.2222C13.3334 17.3333 17.3334 13.3333 22.2223 13.3333C22.7557 13.3333 23.1112 12.9778 23.1112 12.4444C23.1112 11.9111 22.7557 11.5555 22.2223 11.5555Z" fill="#0AB8A9"/>
</g>
<defs>
<clipPath id="clip0">
<rect width="44.4444" height="48" fill="white"/>
</clipPath>
</defs>
</svg>
