<svg width="49" height="45" viewBox="0 0 49 45" fill="none" xmlns="http://www.w3.org/2000/svg">
<g clip-path="url(#clip0)">
<path d="M49 14.0467V13.965V13.8833V13.8017V13.72C49 13.72 49 13.72 49 13.6383C49 13.6383 49 13.6383 49 13.5567L40.8333 0.49C40.8333 0.408333 40.7517 0.408333 40.67 0.326667C40.5883 0.245 40.5067 0.245 40.425 0.163333C40.18 0 40.0983 0 40.0167 0H8.98333C8.90167 0 8.82 0 8.73833 0.0816667C8.65667 0.0816667 8.575 0.163333 8.49333 0.245C8.41167 0.326667 8.41167 0.326667 8.33 0.408333L0.163333 13.475C0.163333 13.475 0.163333 13.475 0.163333 13.5567C0.163333 13.6383 0.163333 13.5567 0.163333 13.5567C0.163333 13.5567 0.163333 13.5567 0.163333 13.6383V13.72V13.8017C0 13.8833 0 13.8833 0 13.8833V13.965V14.0467V14.1283C0 14.1283 0 14.1283 0 14.21C0 14.21 0 14.2917 0.0816667 14.2917C0.0816667 14.2917 0.0816667 14.2917 0.0816667 14.3733L23.765 43.7733C23.8467 43.855 23.9283 43.9367 24.01 43.9367H24.0917C24.255 44.1 24.4183 44.1 24.5 44.1C24.5817 44.1 24.6633 44.1 24.745 44.0183C24.8267 44.0183 24.8267 43.9367 24.8267 43.9367C24.9083 43.9367 24.9083 43.855 24.99 43.7733L48.6733 14.3733C48.6733 14.3733 48.6733 14.3733 48.6733 14.2917C48.6733 14.2917 48.6733 14.2917 48.755 14.21C48.755 14.21 48.755 14.21 48.755 14.1283V14.0467C48.9183 14.1283 49 14.0467 49 14.0467ZM26.215 1.63333H38.8733L34.8717 12.25L26.215 1.63333ZM33.4017 13.0667H15.5983L24.5 2.12333L33.4017 13.0667ZM14.0467 12.3317L10.1267 1.63333H22.785L14.0467 12.3317ZM33.9733 14.7L24.3367 40.5067L14.945 14.7H33.9733ZM40.18 2.695L46.7133 13.0667H36.3417L40.18 2.695ZM8.82 2.695L12.5767 13.0667H2.28667L8.82 2.695ZM13.1483 14.7L22.05 38.955L2.53167 14.7H13.1483ZM26.46 39.5267L35.6883 14.7H46.4683L26.46 39.5267Z" fill="#0AB8A9"/>
</g>
<defs>
<clipPath id="clip0">
<rect width="49" height="44.1" fill="white"/>
</clipPath>
</defs>
</svg>
