<svg width="46" height="48" viewBox="0 0 46 48" fill="none" xmlns="http://www.w3.org/2000/svg">
<g clip-path="url(#clip0)">
<path d="M6.62084 35.5862C4.3036 35.5862 2.48291 37.4069 2.48291 39.7241C2.48291 42.0414 4.3036 43.862 6.62084 43.862C8.93808 43.862 10.7588 42.0414 10.7588 39.7241C10.7588 37.4069 8.93808 35.5862 6.62084 35.5862ZM6.62084 42.2069C5.21394 42.2069 4.13808 41.131 4.13808 39.7241C4.13808 38.3172 5.21394 37.2414 6.62084 37.2414C8.02774 37.2414 9.1036 38.3172 9.1036 39.7241C9.1036 41.131 8.02774 42.2069 6.62084 42.2069Z" fill="#0AB8A9"/>
<path d="M45.5172 28.9655C45.5172 26.8966 44.3586 25.9034 43.2828 25.4897C44.1103 24.7448 44.6897 23.5862 44.6897 22.3448C44.6897 20.0276 42.869 18.2069 40.5517 18.2069H28.6345L29.2138 15.3931C30.0414 11.669 29.4621 7.36552 29.2966 6.12414C28.9655 3.22759 26.4 0 23.5862 0H23.4207C22.0966 0 19.8621 0.744828 19.8621 5.7931C19.8621 12.4138 18.2069 15.4759 16.8 16.8828C15.4759 18.2069 14.1517 18.2069 14.069 18.2069H13.2414V16.5517H0V48H13.2414V46.3448H36.4138C38.731 46.3448 40.5517 44.5241 40.5517 42.2069C40.5517 41.2138 40.2207 40.3862 39.6414 39.6414C41.5448 39.3103 43.0345 37.5724 43.0345 35.5862C43.0345 34.5931 42.7034 33.7655 42.1241 33.0207C44.0276 32.6897 45.5172 30.9517 45.5172 28.9655ZM1.65517 46.3448V18.2069H11.5862V46.3448H1.65517ZM41.3793 31.4483H38.8966H32.2759C31.7793 31.4483 31.4483 31.7793 31.4483 32.2759C31.4483 32.7724 31.7793 33.1035 32.2759 33.1035H38.8966C40.3034 33.1035 41.3793 34.1793 41.3793 35.5862C41.3793 36.9931 40.3034 38.069 38.8966 38.069H37.2414H36.4138H30.6207C30.1241 38.069 29.7931 38.4 29.7931 38.8966C29.7931 39.3931 30.1241 39.7241 30.6207 39.7241H36.4138C37.8207 39.7241 38.8966 40.8 38.8966 42.2069C38.8966 43.6138 37.8207 44.6897 36.4138 44.6897H13.2414V19.8621H14.069C14.1517 19.8621 16.0552 19.8621 17.9586 18.1241C20.2759 15.8069 21.5172 11.669 21.5172 5.7931C21.5172 4.22069 21.7655 1.65517 23.4207 1.65517H23.5862C25.4069 1.65517 27.3931 4.22069 27.7241 6.37241C27.8897 7.53103 28.3862 11.5862 27.6414 15.0621L26.6483 19.8621H40.5517C41.9586 19.8621 43.0345 20.9379 43.0345 22.3448C43.0345 23.7517 41.9586 24.8276 40.5517 24.8276H38.8966H38.069H32.2759C31.7793 24.8276 31.4483 25.1586 31.4483 25.6552C31.4483 26.1517 31.7793 26.4828 32.2759 26.4828H38.069C38.8138 26.4828 40.3862 26.4828 41.2966 26.6483C43.4483 26.9793 43.8621 27.8069 43.8621 28.9655C43.8621 30.3724 42.7862 31.4483 41.3793 31.4483Z" fill="#0AB8A9"/>
</g>
<defs>
<clipPath id="clip0">
<rect width="45.5172" height="48" fill="white"/>
</clipPath>
</defs>
</svg>
