<svg width="49" height="45" viewBox="0 0 49 45" fill="none" xmlns="http://www.w3.org/2000/svg">
<path d="M48.3538 13.4161C47.7016 5.68323 42.1115 0 35.2171 0C30.6519 0 26.4594 2.51553 24.037 6.42857C21.7078 2.42236 17.7016 0 13.2296 0C6.33515 0 0.745085 5.68323 0.0929113 13.4161C-0.000256342 13.7888 -0.186592 15.559 0.465582 18.5404C1.49043 22.8261 3.81962 26.646 7.17366 29.7205L24.037 45L41.1799 29.7205C44.5339 26.646 46.8631 22.8261 47.8879 18.5404C48.6333 15.559 48.4469 13.7888 48.3538 13.4161ZM46.1178 18.0745C45.1861 21.9876 43.0432 25.528 39.9687 28.323L24.1302 42.5776L8.478 28.323C5.40347 25.528 3.26061 21.9876 2.32894 18.0745C1.67676 15.2795 1.95627 13.6957 1.95627 13.6957V13.6025C2.51527 6.80124 7.26682 1.86335 13.2296 1.86335C17.6084 1.86335 21.4283 4.56522 23.2917 8.85093L24.1302 10.9006L24.9687 8.85093C26.7389 4.65839 30.7451 1.86335 35.2171 1.86335C41.1799 1.86335 45.8382 6.80124 46.4904 13.6957C46.4904 13.6957 46.7699 15.2795 46.1178 18.0745Z" fill="#0AB8A9"/>
<path d="M14.9071 5.68323C9.78288 5.68323 5.59033 9.87577 5.59033 15C5.59033 15.559 5.963 15.9317 6.52201 15.9317C7.08102 15.9317 7.45369 15.559 7.45369 15C7.45369 10.9006 10.8077 7.54658 14.9071 7.54658C15.4661 7.54658 15.8388 7.17391 15.8388 6.6149C15.8388 6.0559 15.4661 5.68323 14.9071 5.68323Z" fill="#0AB8A9"/>
</svg>
