<svg width="147" height="23" viewBox="0 0 147 23" fill="none" xmlns="http://www.w3.org/2000/svg">
<path d="M1.98 19V5H11.44V6.46H3.56V19H1.98ZM26.1247 19H24.5447V7.46L15.5847 19H14.2847V5H15.8647V16.28L24.6247 5H26.1247V19ZM28.8455 17.54H30.1855L35.7455 4.9H37.4055L42.9655 17.54H44.3055V21.92H42.7855V19H30.3655V21.92H28.8455V17.54ZM36.5655 6.7L31.8455 17.58H41.2455L36.5655 6.7ZM47.0191 19V5H52.2591C53.8457 5 55.1124 5.4 56.0591 6.2C57.0191 6.98667 57.4991 8.06667 57.4991 9.44V9.48C57.4991 10.9333 56.9724 12.06 55.9191 12.86C54.8791 13.66 53.5724 14.06 51.9991 14.06H48.5991V19H47.0191ZM48.5991 12.62H52.0591C53.2191 12.62 54.1457 12.34 54.8391 11.78C55.5457 11.2067 55.8991 10.46 55.8991 9.54V9.5C55.8991 8.52667 55.5591 7.78 54.8791 7.26C54.2124 6.72667 53.2991 6.46 52.1391 6.46H48.5991V12.62ZM78.1667 19V5H89.3867V19H87.8067V6.46H79.7467V19H78.1667ZM94.3425 19V5H99.5825C101.169 5 102.436 5.4 103.383 6.2C104.343 6.98667 104.823 8.06667 104.823 9.44V9.48C104.823 10.9333 104.296 12.06 103.243 12.86C102.203 13.66 100.896 14.06 99.3225 14.06H95.9225V19H94.3425ZM95.9225 12.62H99.3825C100.543 12.62 101.469 12.34 102.163 11.78C102.869 11.2067 103.223 10.46 103.223 9.54V9.5C103.223 8.52667 102.883 7.78 102.203 7.26C101.536 6.72667 100.623 6.46 99.4625 6.46H95.9225V12.62ZM119.342 17.12C117.995 18.5333 116.282 19.24 114.202 19.24C112.122 19.24 110.415 18.54 109.082 17.14C107.749 15.7267 107.082 14.0267 107.082 12.04V12C107.082 10.0133 107.755 8.31333 109.102 6.9C110.449 5.47333 112.162 4.76 114.242 4.76C116.322 4.76 118.029 5.46667 119.362 6.88C120.695 8.28 121.362 9.97333 121.362 11.96V12C121.362 13.9867 120.689 15.6933 119.342 17.12ZM110.282 16.1C111.335 17.22 112.655 17.78 114.242 17.78C115.829 17.78 117.135 17.2267 118.162 16.12C119.202 15.0133 119.722 13.6533 119.722 12.04V12C119.722 10.3867 119.195 9.02 118.142 7.9C117.102 6.78 115.789 6.22 114.202 6.22C112.615 6.22 111.302 6.77333 110.262 7.88C109.235 8.98667 108.722 10.3467 108.722 11.96V12C108.722 13.6133 109.242 14.98 110.282 16.1ZM124.694 19V5H126.294L131.394 12.64L136.494 5H138.094V19H136.514V7.66L131.414 15.16H131.334L126.234 7.68V19H124.694Z" fill="#0AB8A9"/>
<g clip-path="url(#clip0)">
<path d="M68.7962 3.05636C68.3472 2.4112 67.9509 1.81765 67.5811 1.27571C67.5283 1.19829 67.4491 1.12087 67.3698 1.06926C67.0528 0.86281 66.6302 0.966036 66.4189 1.27571C66.0755 1.81765 65.6792 2.38539 65.2038 3.05636C63.117 6.04991 60 10.566 60 13.1467C60 15.0306 60.7925 16.7338 62.0604 17.9725C63.3283 19.1854 65.0717 19.9596 67 19.9596C68.9283 19.9596 70.6717 19.1854 71.9396 17.9467C73.2075 16.708 74 15.0047 74 13.1209C74 10.5402 70.883 6.04991 68.7962 3.05636ZM70.9887 17.0176C69.9585 18.0241 68.5585 18.6177 67 18.6177C65.4415 18.6177 64.0415 17.9983 63.0113 17.0176C61.9811 16.0112 61.3736 14.6435 61.3736 13.1209C61.3736 10.9531 64.3585 6.64346 66.3396 3.77894C66.5774 3.44346 66.7887 3.10797 67 2.8241C67.2113 3.10797 67.4226 3.44346 67.6604 3.77894C69.6415 6.66926 72.6264 10.9531 72.6264 13.1209C72.6264 14.6435 71.9925 16.0112 70.9887 17.0176Z" fill="#0AB8A9"/>
<mask id="path-4-inside-1" fill="white">
<path d="M71.0943 12.6542C70.7245 12.6284 70.4075 12.9123 70.3811 13.2736C70.3547 13.8413 70.1698 14.3833 69.8792 14.8478C69.5886 15.3123 69.166 15.7252 68.6641 15.9833C68.3471 16.1639 68.215 16.5768 68.3999 16.8865C68.6113 17.2478 69.0339 17.351 69.3509 17.1704C70.0641 16.7833 70.6452 16.2155 71.0415 15.5704C71.4641 14.9252 71.7018 14.151 71.7282 13.351C71.7547 12.9897 71.4641 12.6801 71.0943 12.6542Z"/>
</mask>
<path d="M71.0943 12.6542C70.7245 12.6284 70.4075 12.9123 70.3811 13.2736C70.3547 13.8413 70.1698 14.3833 69.8792 14.8478C69.5886 15.3123 69.166 15.7252 68.6641 15.9833C68.3471 16.1639 68.215 16.5768 68.3999 16.8865C68.6113 17.2478 69.0339 17.351 69.3509 17.1704C70.0641 16.7833 70.6452 16.2155 71.0415 15.5704C71.4641 14.9252 71.7018 14.151 71.7282 13.351C71.7547 12.9897 71.4641 12.6801 71.0943 12.6542Z" fill="#0AB8A9"/>
<path d="M70.3811 13.2736L69.3837 13.2007L69.3828 13.2139L69.3822 13.2271L70.3811 13.2736ZM68.6641 15.9833L68.2068 15.094L68.1877 15.1038L68.169 15.1145L68.6641 15.9833ZM68.3999 16.8865L69.2632 16.3816L69.2585 16.3738L68.3999 16.8865ZM69.3509 17.1704L68.8739 16.2915L68.8648 16.2964L68.8558 16.3016L69.3509 17.1704ZM71.0415 15.5704L70.205 15.0224L70.197 15.0346L70.1893 15.047L71.0415 15.5704ZM71.7282 13.351L70.7309 13.2781L70.7294 13.298L70.7288 13.318L71.7282 13.351ZM71.1639 11.6567C70.2337 11.5918 69.4495 12.3007 69.3837 13.2007L71.3784 13.3465C71.3654 13.5239 71.2153 13.6651 71.0247 13.6518L71.1639 11.6567ZM69.3822 13.2271C69.3644 13.6083 69.2391 13.9854 69.0314 14.3175L70.727 15.3781C71.1004 14.7812 71.3449 14.0744 71.38 13.3201L69.3822 13.2271ZM69.0314 14.3175C68.8258 14.6462 68.5318 14.9268 68.2068 15.094L69.1214 16.8726C69.8001 16.5236 70.3515 15.9785 70.727 15.3781L69.0314 14.3175ZM68.169 15.1145C67.4244 15.5388 67.0355 16.552 67.5414 17.3992L69.2585 16.3738C69.3257 16.4864 69.3236 16.6009 69.3014 16.6748C69.2801 16.7454 69.2331 16.81 69.1592 16.8521L68.169 15.1145ZM67.5368 17.3914C68.0124 18.2046 69.0321 18.503 69.846 18.0392L68.8558 16.3016C69.0357 16.199 69.2101 16.291 69.2631 16.3816L67.5368 17.3914ZM69.8279 18.0493C70.6992 17.5764 71.4081 16.8843 71.8936 16.0937L70.1893 15.047C69.8824 15.5468 69.429 15.9902 68.8739 16.2915L69.8279 18.0493ZM71.8779 16.1184C72.4063 15.3118 72.6956 14.3577 72.7277 13.384L70.7288 13.318C70.7081 13.9444 70.5219 14.5386 70.205 15.0224L71.8779 16.1184ZM72.7256 13.4239C72.7963 12.4569 72.0307 11.7172 71.1639 11.6567L71.0247 13.6518C70.8975 13.6429 70.713 13.5226 70.7309 13.2781L72.7256 13.4239Z" fill="#0AB8A9" mask="url(#path-4-inside-1)"/>
</g>
<defs>
<clipPath id="clip0">
<rect x="60" y="0.957458" width="14" height="19" fill="white"/>
</clipPath>
</defs>
</svg>
