<svg width="50" height="39" viewBox="0 0 50 39" fill="none" xmlns="http://www.w3.org/2000/svg">
<g clip-path="url(#clip0)">
<path d="M47.5 0H2.5C1.12305 0 0 1.12305 0 2.5V35.8301C0 37.207 1.12305 38.3301 2.5 38.3301H47.5C48.877 38.3301 50 37.207 50 35.8301V2.5C50 1.12305 48.877 0 47.5 0ZM48.3301 35.8301C48.3301 36.2891 47.959 36.6602 47.5 36.6602H2.5C2.04102 36.6602 1.66992 36.2891 1.66992 35.8301V2.5C1.66992 2.04102 2.04102 1.66992 2.5 1.66992H47.5C47.959 1.66992 48.3301 2.04102 48.3301 2.5V35.8301Z" fill="white"/>
<path d="M45.9081 3.33984C45.6835 3.32031 45.4686 3.38867 45.3026 3.53516L26.0741 19.6777C25.4589 20.1953 24.5507 20.1953 23.9257 19.6777L4.70691 3.52539C4.4823 3.33008 4.1698 3.28125 3.8866 3.37891C3.60339 3.47656 3.39832 3.7207 3.34949 4.01367C3.30066 4.30664 3.40808 4.60937 3.63269 4.79492L22.8514 20.957C24.0917 22.0019 25.8983 22.0019 27.1385 20.957L46.3671 4.80469C46.5331 4.6582 46.6405 4.46289 46.66 4.23828C46.6796 4.01367 46.6112 3.79883 46.4647 3.63281C46.328 3.45703 46.1229 3.35938 45.9081 3.33984Z" fill="white"/>
<path d="M16.0252 20.8398C15.7322 20.7715 15.4197 20.8691 15.2244 21.0937L3.5545 33.5937C3.33966 33.8086 3.26154 34.1211 3.34943 34.4141C3.43732 34.707 3.67169 34.9219 3.96466 34.9902C4.25763 35.0586 4.57013 34.9609 4.76544 34.7363L16.4354 22.2363C16.6502 22.0215 16.7283 21.709 16.6404 21.416C16.5525 21.123 16.3182 20.9082 16.0252 20.8398Z" fill="white"/>
<path d="M34.7752 21.0937C34.5701 20.8691 34.2674 20.7715 33.9744 20.8398C33.6815 20.9082 33.4471 21.123 33.3592 21.416C33.2713 21.709 33.3494 22.0215 33.5643 22.2363L45.2342 34.7363C45.5467 35.0586 46.0643 35.0683 46.3963 34.7656C46.7283 34.4531 46.7479 33.9355 46.4451 33.6035L34.7752 21.0937Z" fill="white"/>
</g>
<defs>
<clipPath id="clip0">
<rect width="50" height="38.3301" fill="white"/>
</clipPath>
</defs>
</svg>
