<svg width="45" height="45" viewBox="0 0 45 45" fill="none" xmlns="http://www.w3.org/2000/svg">
<path d="M22.5 19.5C25.425 19.5 27.75 17.175 27.75 14.25C27.75 11.325 25.425 9 22.5 9C19.575 9 17.25 11.325 17.25 14.25C17.25 17.175 19.575 19.5 22.5 19.5ZM22.5 10.5C24.6 10.5 26.25 12.15 26.25 14.25C26.25 16.35 24.6 18 22.5 18C20.4 18 18.75 16.35 18.75 14.25C18.75 12.15 20.4 10.5 22.5 10.5Z" fill="white"/>
<path d="M22.35 41.1L33.825 24.45C38.175 18.675 37.5 9.225 32.475 4.2C29.85 1.5 26.175 0 22.35 0C18.525 0 14.925 1.5 12.15 4.2C7.12499 9.225 6.52499 18.675 10.8 24.45L22.35 41.1ZM13.275 5.25C15.675 2.85 18.975 1.5 22.35 1.5C25.725 1.5 29.025 2.85 31.5 5.25C36 9.75 36.6 18.3 32.7 23.55L22.35 38.4L12.075 23.55C8.17499 18.375 8.69999 9.825 13.275 5.25Z" fill="white"/>
<path d="M31.575 32.2498C31.2 32.1748 30.825 32.4748 30.75 32.9248C30.675 33.3748 30.975 33.6748 31.425 33.7498C39.3 34.6498 43.5 37.1998 43.5 38.6248C43.5 40.6498 35.475 43.4998 22.5 43.4998C9.525 43.4998 1.5 40.6498 1.5 38.6248C1.5 37.1998 5.7 34.6498 13.575 33.7498C13.95 33.6748 14.25 33.2998 14.25 32.9248C14.175 32.5498 13.8 32.2498 13.425 32.2498C5.55 33.1498 0 35.7748 0 38.6248C0 41.7748 7.725 44.9998 22.5 44.9998C37.275 44.9998 45 41.7748 45 38.6248C45 35.7748 39.45 33.1498 31.575 32.2498Z" fill="white"/>
</svg>
