<svg width="46" height="45" viewBox="0 0 46 45" fill="none" xmlns="http://www.w3.org/2000/svg">
<path d="M43.8231 34.7165L42.0741 33.5476C46.0204 26.613 45.9764 18.1052 41.9598 11.2146C37.9432 4.32396 30.5692 0.0876271 22.5975 0.0964161C22.1844 0.0964161 21.8504 0.430401 21.8504 0.843486C21.8504 1.25657 22.1844 1.59056 22.5975 1.59056C30.0243 1.58177 36.8885 5.51927 40.6414 11.9265C44.3944 18.3337 44.4647 26.2439 40.826 32.7214L34.7176 28.6433C33.5575 27.8786 32.0106 28.1335 31.158 29.2234L28.5037 32.6335C28.161 33.0818 27.5457 33.2136 27.0535 32.9411L26.5526 32.6599C24.8826 31.7458 22.7996 30.612 18.5985 26.4197C14.3973 22.2273 13.2635 20.1355 12.3582 18.4656L12.0858 17.9646C11.8045 17.4724 11.9364 16.8484 12.3846 16.5056L15.7948 13.8513C16.8846 12.9988 17.1395 11.4431 16.3748 10.2917L10.284 1.17747C9.50178 -0.000263585 7.92854 -0.351826 6.72443 0.377666L2.91877 2.66282C1.72346 3.36595 0.844548 4.50853 0.466618 5.84446C-0.904476 10.8454 0.123844 19.4675 12.8328 32.1765C18.3699 37.7136 23.1248 41.0271 27.1502 42.8992C20.9539 44.2966 14.4676 42.8025 9.51057 38.8298C4.55353 34.8659 1.67072 28.8542 1.6883 22.4997C1.6883 22.0867 1.35431 21.7527 0.941228 21.7527C0.528142 21.7527 0.194157 22.0867 0.194157 22.4997C0.202946 34.8659 10.2313 44.8943 22.5975 44.9118C24.9178 44.9118 27.2205 44.5515 29.4266 43.8396C31.4129 44.5867 33.5223 44.9734 35.6405 45.0085C36.827 45.0173 38.0135 44.8591 39.1649 44.5515C40.5008 44.1736 41.6434 43.2947 42.3465 42.0993L44.6405 38.2937C45.3612 37.072 45.0008 35.4988 43.8231 34.7165ZM43.3397 37.5115L41.0545 41.3171C40.5536 42.1784 39.7274 42.82 38.7606 43.0925C36.5809 43.6902 33.6278 43.7693 29.8309 42.3982C29.7694 42.363 29.7078 42.3367 29.6375 42.3191C25.4364 40.7722 20.2244 37.4499 13.8875 31.113C1.6883 18.9226 0.6424 10.8542 1.90803 6.23997C2.18049 5.27317 2.82209 4.45579 3.68342 3.94603L7.48908 1.66087C8.01643 1.34446 8.69319 1.49388 9.03596 2.01243L12.3319 6.96946L15.1004 11.1267C15.4344 11.6277 15.3201 12.3044 14.8455 12.6736L11.4354 15.3279C10.3983 16.1189 10.0994 17.5603 10.741 18.6941L11.0135 19.1863C11.9715 20.9441 13.1668 23.1325 17.5174 27.4831C21.868 31.8337 24.0565 33.029 25.8143 33.987L26.3065 34.2595C27.4491 34.9011 28.8817 34.6023 29.6727 33.5652L32.327 30.155C32.6961 29.6804 33.3729 29.5749 33.8739 29.9001L42.9793 35.9734C43.4979 36.3074 43.6561 36.9841 43.3397 37.5115Z" fill="white"/>
</svg>
